<svg height='300px' width='300px'  fill="#fff" xmlns="http://www.w3.org/2000/svg" data-name="Layer 1" viewBox="0 0 76.73 89.49" x="0px" y="0px"><path d="M81.87,23.3a18.78,18.78,0,0,0-11.51-4.6,14.54,14.54,0,0,0-7.26,1.79,15.42,15.42,0,0,1-5.89,1.77,13.22,13.22,0,0,1-8.1-1.93c-2-1.06-4.14-2.16-7.27-1.72a11.82,11.82,0,0,0-3.26,1L32.2,13.21a1,1,0,0,0-1.42,0L25.89,18.1l-6.24-6.25L24.54,7a1,1,0,0,0,0-1.41,1,1,0,0,0-1.42,0L11.93,16.74a1,1,0,0,0,0,1.42,1,1,0,0,0,.71.29,1,1,0,0,0,.7-.29l4.89-4.89,6.25,6.24L19.59,24.4a1,1,0,0,0-.29.71,1,1,0,0,0,.29.71l7.87,7.87a26.91,26.91,0,0,0-1.09,5c-1,8.78,3.13,15.67,5.26,18.55-3,16.57.49,26,4,31s6.26,7,8.44,6.31c2-.64,2.58-3.33,3-5.48a20.12,20.12,0,0,0,.2-7.34,16,16,0,0,1-.18-3.09c.32-5.16,5.12-11.7,10.07-11.7h0c4.51,0,9,5.5,9.88,10.24a16.6,16.6,0,0,1,0,4.45,21,21,0,0,0,.76,8.7c.61,2,1.49,4.08,3.33,4.45a2.47,2.47,0,0,0,.54,0c1.67,0,3.17-1.54,4.18-2.76,7.13-8.58,7.91-22.15,7.94-22.72a58.86,58.86,0,0,0-.64-12,29.76,29.76,0,0,0,5.09-15.63C88.42,38.26,88.65,29.26,81.87,23.3Zm-50.38-8L51.78,35.62l-4.26,4.26L44,36.18,27.31,19.51ZM55,38.87,48,45.92a1,1,0,0,0,0,1.42,1,1,0,0,0,1.42,0l7-7.06L59,42.84l-4,4a1,1,0,0,0,.71,1.7,1,1,0,0,0,.71-.29l4-4,4.11,4.11-9.77,9.78L43.41,46.81,53.19,37ZM65.47,62l-5.88-5.88,2.74-2.74,5.88,5.88ZM25.89,20.93,42.55,37.58l3.56,3.71L42,45.4,21.71,25.11ZM86.34,41.61a27.79,27.79,0,0,1-5,14.88,1,1,0,0,0-.16.72,56.54,56.54,0,0,1,.68,11.95c0,.13-.78,13.48-7.48,21.54-1.6,1.93-2.43,2.1-2.78,2s-1.08-.69-1.82-3.07a19.28,19.28,0,0,1-.68-8,18.08,18.08,0,0,0-.08-5c-1-5.61-6.3-11.88-11.84-11.88h0c-6,0-11.69,7.47-12.07,13.58a19.48,19.48,0,0,0,.19,3.45,17.77,17.77,0,0,1-.17,6.68c-.31,1.48-.79,3.71-1.7,4s-3-1-6.18-5.56c-3.32-4.71-6.64-13.71-3.6-29.87a1,1,0,0,0-.19-.79c-1.87-2.44-6.12-9-5.13-17.45a24.4,24.4,0,0,1,.72-3.6l25,25a1,1,0,0,0,1.41,0l2.73-2.72,6.58,6.59a1,1,0,0,0,1.42,0l1.46-1.46,8,8a1,1,0,0,0,.71.29,1,1,0,0,0,.71-.29,1,1,0,0,0,0-1.42l-8-8L70.33,60a1,1,0,0,0,0-1.42L63.74,52l2.91-2.9a1,1,0,0,0,.29-.71,1,1,0,0,0-.29-.7l-5.53-5.53h0L53.9,34.91h0L40.11,21.12a9.34,9.34,0,0,1,2-.53c2.49-.35,4.15.51,6.07,1.51a15.05,15.05,0,0,0,9.2,2.16,17.47,17.47,0,0,0,6.57-2,12.4,12.4,0,0,1,6.36-1.59,17,17,0,0,1,10.23,4.1C86.63,30.14,86.42,38.46,86.34,41.61Z" transform="translate(-11.64 -5.26)"></path></svg>