<svg height='300px' width='300px'  fill="#fff" xmlns="http://www.w3.org/2000/svg" xmlns:xlink="http://www.w3.org/1999/xlink" version="1.1" x="0px" y="0px" viewBox="0 0 64 64" style="enable-background:new 0 0 64 64;" xml:space="preserve"><g><g><path d="M49.399,16.094h-2.627v-2.628c0-0.552-0.448-1-1-1h-4.439c-0.552,0-1,0.448-1,1v2.628h-2.627c-0.552,0-1,0.448-1,1v4.439    c0,0.552,0.448,1,1,1h2.627v2.618c0,0.552,0.448,1,1,1h4.439c0.552,0,1-0.448,1-1v-2.618h2.627c0.552,0,1-0.448,1-1v-4.439    C50.399,16.542,49.951,16.094,49.399,16.094z M48.399,20.533h-2.627c-0.552,0-1,0.448-1,1v2.618h-2.439v-2.618    c0-0.552-0.448-1-1-1h-2.627v-2.439h2.627c0.552,0,1-0.448,1-1v-2.628h2.439v2.628c0,0.552,0.448,1,1,1h2.627V20.533z"></path><path d="M54.75,19.309c0-6.175-5.023-11.198-11.198-11.198c-3.609,0-6.816,1.724-8.865,4.383    c-2.634,0.528-4.791,1.339-5.505,1.626c-1.66-0.668-9.587-3.61-14.879-1.165c-2.085,0.964-3.503,2.628-4.217,4.947    c-2.171,7.055,0.365,12.134,2.217,15.842c0.708,1.418,1.32,2.644,1.412,3.537c0.052,0.503,0.093,1.229,0.145,2.103    c0.361,6.183,0.99,12.992,3.897,15.518c0.755,0.656,1.616,0.987,2.562,0.987c0.113,0,0.227-0.004,0.342-0.014    c3.275-0.269,3.32-3.704,3.359-6.735c0.062-4.766,0.436-7.659,5.067-7.659l0.165,0.003c4.652,0,5.026,2.893,5.088,7.656    c0.04,3.031,0.085,6.465,3.36,6.732c1.083,0.09,2.057-0.236,2.901-0.97c2.908-2.524,3.535-9.34,3.894-15.531    c0.051-0.87,0.092-1.593,0.143-2.092c0.094-0.896,0.706-2.121,1.414-3.539c0.602-1.206,1.272-2.568,1.837-4.108    C51.915,27.935,54.75,23.947,54.75,19.309z M44.261,32.848c-0.794,1.592-1.481,2.967-1.613,4.226    c-0.054,0.523-0.098,1.276-0.15,2.182c-0.225,3.88-0.694,11.954-3.208,14.137c-0.434,0.377-0.884,0.53-1.426,0.487    c-1.324-0.108-1.481-1.535-1.524-4.766c-0.05-3.834-0.126-9.63-7.068-9.63l-0.165-0.003c-6.962,0-7.037,5.797-7.087,9.633    c-0.042,3.232-0.199,4.66-1.522,4.768c-0.547,0.043-0.994-0.112-1.429-0.49c-2.515-2.185-2.986-10.249-3.212-14.124    c-0.053-0.91-0.098-1.666-0.152-2.19c-0.128-1.256-0.816-2.632-1.612-4.226c-1.701-3.406-4.03-8.071-2.095-14.361    c0.547-1.776,1.575-2.993,3.142-3.718c3.205-1.484,7.839-0.539,10.778,0.341c-2.275,0.596-5.466,1.274-8.224,1.274    c-0.552,0-1,0.448-1,1s0.448,1,1,1c5.239,0,11.615-2.177,11.952-2.296c0.02-0.009,1.521-0.646,3.626-1.212    c-0.588,1.36-0.918,2.857-0.918,4.43c0,6.175,5.023,11.198,11.198,11.198c0.649,0,1.282-0.067,1.901-0.174    C45.061,31.232,44.647,32.075,44.261,32.848z M43.552,28.508c-5.072,0-9.198-4.126-9.198-9.198s4.126-9.198,9.198-9.198    s9.198,4.126,9.198,9.198S48.624,28.508,43.552,28.508z"></path></g></g></svg>