<svg height='300px' width='300px'  fill="#fff" xmlns="http://www.w3.org/2000/svg" xmlns:xlink="http://www.w3.org/1999/xlink" version="1.1" x="0px" y="0px" viewBox="0 0 70 70" style="enable-background:new 0 0 70 70;" xml:space="preserve"><path d="M30.1762695,17.5234375c-1.581543-0.6972656-3.1142578-1.0859375-4.5551758-1.1572266  c-3.9487305-0.1796875-7.2597656,2.6503906-7.7260742,6.6191406c-0.4526367,3.8544922,1.6303711,7.5761719,2.9125977,9.4501953  c0.2900391,0.4248047,0.3979492,0.8984375,0.3125,1.3671875c-2.2246094,12.2128906,5.8413086,19.0517578,6.2255859,19.3681641  c0.3950195,0.2949219,0.8046875,0.4443359,1.2163086,0.4443359c1.1147461,0,1.7509766-1.0351562,1.9716797-1.9941406  c0.2089844-1.3457031,0.0546875-2.5400391-0.0952148-3.6943359c-0.0351562-0.2734375-0.0708008-0.546875-0.1015625-0.8261719  c-0.2021484-1.8076172-0.331543-4.3818359,0.8725586-5.8720703c0.605957-0.7509766,1.5068359-1.1767578,2.7529297-1.3017578  c0.6469727-0.0644531,1.1708984-0.0517578,1.7241211,0.0439453c3.0791016,0.4619141,4.1264648,2.5380859,3.6147461,7.1660156  c-0.0307617,0.2773438-0.0664062,0.5527344-0.1015625,0.8261719c-0.1494141,1.1533203-0.3041992,2.3447266-0.0825195,3.7666016  c0.0561523,0.2392578,0.3881836,1.4492188,1.3950195,1.8164062c0.1337891,0.0488281,0.3232422,0.0976562,0.5551758,0.0976562  c0.3398438,0,0.7700195-0.1035156,1.2475586-0.4589844c0.3540039-0.2822266,8.6455078-7.0546875,6.4765625-19.2363281  c-0.0869141-0.4873047,0.0527344-1.0117188,0.3930664-1.4765625c2.7114258-3.7011719,3.1044922-7.1484375,2.9575195-9.3896484  c0,0,0,0,0-0.0009766c-0.0917969-1.3867188-0.5175781-2.6728516-1.2314453-3.7197266  c-2.9003906-4.2509766-8.5024414-3.0976562-11.0112305-1.9140625  C34.5673828,19.6269531,30.2602539,17.5634766,30.1762695,17.5234375z M40.7036133,19.2773438  c0.0585938-0.0273438,5.8813477-2.7080078,8.5546875,1.2109375c0.5126953,0.7519531,0.8198242,1.6943359,0.8876953,2.7255859  c0.1254883,1.9091797-0.2192383,4.8603516-2.574707,8.0761719c-0.6669922,0.9101562-0.9326172,1.9785156-0.7485352,3.0087891  c1.875,10.5332031-4.855957,16.5664062-5.6591797,17.2441406C41.125,51.46875,41.0917969,51.3896484,41.0786133,51.3486328  c-0.1630859-1.0644531-0.0332031-2.0673828,0.1044922-3.1279297c0.0371094-0.2861328,0.0742188-0.5742188,0.1064453-0.8652344  c0.2299805-2.0839844,0.9311523-8.4267578-5.2827148-9.359375c-0.4208984-0.0732422-0.84375-0.109375-1.2915039-0.109375  c-0.3037109,0-0.6191406,0.0166016-0.9526367,0.0498047c-1.7807617,0.1796875-3.1630859,0.8642578-4.1088867,2.0351562  c-1.6743164,2.0722656-1.5463867,5.1875-1.3046875,7.3496094c0.0322266,0.2900391,0.0693359,0.5771484,0.105957,0.8623047  c0.1376953,1.0625,0.2675781,2.0654297,0.1181641,3.0507812c-0.0214844,0.0859375-0.059082,0.1855469-0.0991211,0.2705078  c-0.9125977-0.8251953-7.2700195-7.0048828-5.3862305-17.34375c0.1787109-0.9833984-0.0444336-1.9970703-0.6289062-2.8535156  c-0.9052734-1.3242188-2.9682617-4.7617188-2.5776367-8.0888672c0.3417969-2.9111328,2.769043-5.015625,5.6411133-4.8544922  c1.1962891,0.0585938,2.4907227,0.3916016,3.8027344,0.96875C29.5317383,19.4365234,34.4536133,21.8349609,40.7036133,19.2773438z"></path><path d="M3.0170898,25.8955078c-1.9814453,7.2636719-1.015625,14.8291016,2.7207031,21.2998047  c0.1855469,0.3212891,0.5214844,0.5,0.8671875,0.5c0.1694336,0,0.3417969-0.0429688,0.4990234-0.1337891  c0.4785156-0.2763672,0.6420898-0.8876953,0.3662109-1.3662109C4.0024414,40.1894531,3.1064453,33.1669922,4.9467773,26.421875  c1.6578979-6.078125,5.3529663-11.24646,10.4880371-14.7561035l-0.3908691,3.7580566  c-0.0571289,0.5498047,0.3417969,1.0410156,0.8911133,1.0986328c0.0351562,0.0029297,0.0703125,0.0048828,0.1044922,0.0048828  c0.5058594,0,0.9399414-0.3828125,0.9936523-0.8964844l0.6044922-5.8115234  c0.0039062-0.0373535-0.0100708-0.0708008-0.0103149-0.1074219c-0.0001221-0.0686035-0.0048828-0.1340332-0.0193481-0.2021484  c-0.0144653-0.067627-0.0366211-0.1286621-0.0641479-0.190918c-0.0148315-0.0338135-0.0157471-0.0703125-0.0346069-0.1030273  c-0.0134888-0.0233154-0.0361938-0.0362549-0.0512085-0.0581055c-0.0391846-0.0571289-0.0848999-0.1049805-0.1350098-0.1530762  c-0.0457764-0.0437012-0.0896606-0.085083-0.1419067-0.1188965c-0.0519409-0.0336914-0.1074219-0.0568848-0.1657715-0.0808105  c-0.0646973-0.0266113-0.1272583-0.0488281-0.1958618-0.0614014c-0.0256958-0.0047607-0.0465088-0.0201416-0.072937-0.0228271  l-5.8115234-0.6044922C10.3740234,8.0654297,9.894043,8.4589844,9.8369141,9.0078125  c-0.0571289,0.5498047,0.3417969,1.0410156,0.8911133,1.0986328l2.9934082,0.3112793  C8.496582,14.1828613,4.7384644,19.5864258,3.0170898,25.8955078z"></path><path d="M42.1015625,65.0595703c-6.7436523,1.8349609-13.7661133,0.9365234-19.7744141-2.5322266  c-0.4794922-0.2773438-1.090332-0.1123047-1.3662109,0.3662109s-0.1123047,1.0898438,0.3662109,1.3662109  c4.2788086,2.4707031,9.0341797,3.7314453,13.8647461,3.7314453c2.4765625,0,4.9731445-0.3320312,7.4345703-1.0019531  c6.4459229-1.7546387,11.9428101-5.6376953,15.7156982-11.038208l0.725708,3.3428955  c0.1015625,0.46875,0.515625,0.7880859,0.9760742,0.7880859c0.0703125,0,0.1416016-0.0068359,0.2128906-0.0224609  c0.5400391-0.1171875,0.8823242-0.6503906,0.7651367-1.1894531l-1.2392578-5.7099609  c-0.0016479-0.0078125-0.0074463-0.0136719-0.0092773-0.0212402c-0.0170898-0.0710449-0.0542603-0.1335449-0.0864868-0.1994629  c-0.0249023-0.0507812-0.0405884-0.1052246-0.0736084-0.1508789c-0.0368042-0.0510254-0.090271-0.0881348-0.137085-0.1322021  c-0.0440063-0.0413818-0.078064-0.0919189-0.1295776-0.1251221c-0.0067749-0.0043945-0.0151978-0.0045166-0.0220337-0.008667  c-0.0074463-0.0045166-0.0113525-0.0123291-0.0189819-0.0167236c-0.0531616-0.0307617-0.1113892-0.0362549-0.1671143-0.0562744  c-0.0603638-0.0216064-0.1168823-0.0509033-0.1800537-0.0606689c-0.0741577-0.0114746-0.1459961-0.001709-0.2197266,0.003418  c-0.0485229,0.0030518-0.0971069-0.0080566-0.1450195,0.0021973l-5.7094727,1.2392578  c-0.5400391,0.1171875-0.8823242,0.6503906-0.7651367,1.1894531c0.1171875,0.5400391,0.652832,0.8847656,1.1889648,0.765625  l3.3577881-0.7290039C53.1618652,59.8483887,48.0688477,63.4353027,42.1015625,65.0595703z"></path><path d="M63.0083008,31.046875c0.0126953,0,0.0249023,0,0.0375977-0.0009766  c0.1759033-0.0064697,0.3363037-0.0736084,0.4830933-0.1652832c0.0918579-0.0529785,0.1766968-0.112793,0.2471313-0.1911621  l3.9382324-4.2480469c0.3754883-0.4052734,0.3515625-1.0371094-0.0537109-1.4130859  c-0.4042969-0.3759766-1.0366211-0.3525391-1.4130859,0.0537109l-2.3218994,2.5047607  C62.6841431,13.2808838,50.6502686,2.0166016,36.0283203,2.0166016c-0.5522461,0-1,0.4472656-1,1s0.4477539,1,1,1  c13.5509644,0,24.7086792,10.4177246,25.899292,23.6643066l-2.5233154-2.3400879  c-0.4057617-0.3759766-1.0371094-0.3525391-1.4135742,0.0537109c-0.3754883,0.4042969-0.3515625,1.0371094,0.0532227,1.4130859  l4.2841797,3.9726562C62.5136719,30.9521484,62.7563477,31.046875,63.0083008,31.046875z"></path></svg>