<svg xmlns="http://www.w3.org/2000/svg" viewBox="0 0 189 189" xmlns:xlink="http://www.w3.org/1999/xlink" version="1.1" width="100%" height="100%" style=""><rect id="backgroundrect" width="100%" height="100%" x="0" y="0" fill="none" stroke="none"/>

<g class="currentLayer" style=""><title>Layer 1</title><g enable-background="new" id="svg_1" class="">
<g id="svg_2">
<g id="Layer-1" data-name="Layer 1">
<path d="M82.6409996582031,-3.41796862812771e-7 C90.50199965820315,-3.41796862812771e-7 98.36309965820311,-3.41796862812771e-7 106.2240996582031,-3.41796862812771e-7 C114.41619965820314,-3.41796862812771e-7 125.6017996582031,8.038799658203118 121.11849965820312,14.894699658203137 C112.52839965820311,28.030399658203123 114.8053996582031,40.02889965820313 121.11849965820312,51.51029965820314 C125.06569965820313,58.68819965820313 107.66949965820311,74.46839965820311 106.2240996582031,66.40469965820313 C98.36309965820311,22.548799658203137 90.50199965820315,22.548799658203137 82.6409996582031,66.40469965820313 C81.19589965820313,74.46839965820311 63.385499658203116,58.44419965820313 67.74659965820314,51.51029965820314 C75.32529965820311,39.459399658203125 77.77079965820315,27.273599658203125 67.74659965820314,14.894699658203137 C62.591799658203115,8.52859965820312 74.44889965820312,-3.41796862812771e-7 82.6409996582031,-3.41796862812771e-7 " fill="#f5821f" fill-rule="evenodd" id="svg_3"/>
<filter id="blend_1" transform="translate(-211.35910034179688,-13.359100341796875) "><feBlend mode="multiply" in2="BackgroundImage" in="SourceGraphic"/></filter>
<g filter="url(#blend_1)" id="svg_4">
<path d="M153.0770996582031,19.234499658203134 C158.63589965820313,24.792999658203115 164.19429965820314,30.35169965820313 169.75249965820313,35.91019965820311 C175.5453996582031,41.70279965820313 177.77059965820314,55.29659965820312 169.75249965820313,56.97409965820313 C154.3900996582031,60.18859965820312 147.51579965820315,70.28279965820312 143.86169965820312,82.86549965820312 C141.57699965820314,90.73219965820313 118.11769965820315,89.58899965820312 122.7976996582031,82.86549965820312 C148.2496996582031,46.29569965820312 142.69129965820315,40.73729965820311 106.12179965820314,66.18979965820313 C99.3979996582031,70.86929965820312 98.13519965820313,46.94519965820314 106.12179965820314,45.12559965820313 C120.00159965820313,41.96329965820311 130.3474996582031,35.07619965820314 132.01289965820314,19.234499658203134 C132.86919965820312,11.087999658203131 147.28419965820314,13.441899658203113 153.0770996582031,19.234499658203134 " fill="#00aeef" fill-opacity=".71" fill-rule="evenodd" id="svg_5"/>
</g>
<g filter="url(#blend_1)" id="svg_6">
<path d="M189.28209965820315,82.64099965820313 C189.28209965820315,90.50199965820312 189.28209965820315,98.36309965820313 189.28209965820315,106.22409965820313 C189.28209965820315,114.41599965820312 181.2432996582031,125.6017996582031 174.38739965820315,121.11849965820312 C161.25139965820313,112.52839965820313 149.25319965820313,114.80539965820313 137.77169965820315,121.11849965820312 C130.59359965820312,125.06569965820313 114.81369965820312,107.66949965820312 122.8773996582031,106.22409965820313 C166.7335996582031,98.36309965820313 166.7335996582031,90.50199965820312 122.8773996582031,82.64099965820313 C114.81369965820312,81.19559965820312 130.83759965820315,63.385499658203116 137.77169965820315,67.74629965820313 C149.82269965820313,75.32529965820312 162.00819965820313,77.77079965820313 174.38739965820315,67.74629965820313 C180.75319965820313,62.59149965820313 189.28209965820315,74.44889965820312 189.28209965820315,82.64099965820313 " fill="#709742" fill-opacity=".71" fill-rule="evenodd" id="svg_7"/>
</g>
<g filter="url(#blend_1)" id="svg_8">
<path d="M170.04759965820313,153.0770996582031 C164.4887996582031,158.63559965820312 158.9303996582031,164.19429965820314 153.37159965820314,169.75249965820313 C147.57929965820313,175.5453996582031 133.9851996582031,177.77059965820314 132.30769965820315,169.75249965820313 C129.09349965820314,154.39009965820313 118.99929965820314,147.51579965820312 106.4165996582031,143.86139965820314 C98.54959965820314,141.57669965820313 99.69309965820315,118.11739965820311 106.4165996582031,122.79739965820312 C142.9860996582031,148.24969965820313 148.54479965820315,142.69129965820312 123.09219965820313,106.12179965820313 C118.4124996582031,99.39799965820312 142.3365996582031,98.13489965820312 144.15619965820315,106.12179965820313 C147.3184996582031,120.00159965820313 154.20559965820314,130.3474996582031 170.04759965820313,132.01289965820314 C178.19409965820313,132.86889965820313 175.83989965820314,147.28419965820314 170.04759965820313,153.0770996582031 " fill="#ec008c" fill-opacity=".71" fill-rule="evenodd" id="svg_9"/>
</g>
<path d="M106.64079965820315,189.2817996582031 C98.7797996582031,189.2817996582031 90.91869965820314,189.2817996582031 83.05799965820313,189.2817996582031 C74.86579965820312,189.2817996582031 63.679999658203144,181.2432996582031 68.16359965820311,174.38739965820312 C76.75369965820312,161.25139965820313 74.4765996582031,149.25289965820312 68.16359965820311,137.77149965820314 C64.2163996582031,130.59359965820312 81.6128996582031,114.81369965820312 83.05799965820313,122.87709965820312 C90.91869965820314,166.73299965820314 98.7797996582031,166.73299965820314 106.64079965820315,122.87709965820312 C108.0861996582031,114.81369965820312 125.89629965820313,130.83759965820315 121.53549965820315,137.77149965820314 C113.95669965820315,149.82239965820312 111.51129965820314,162.00819965820313 121.53549965820315,174.38739965820312 C126.69029965820312,180.75319965820313 114.83319965820311,189.2817996582031 106.64079965820315,189.2817996582031 " fill="#f5821f" fill-rule="evenodd" id="svg_10"/>
<g filter="url(#blend_1)" id="svg_11">
<path d="M36.20499965820312,170.04759965820313 C30.64619965820313,164.48879965820313 25.087799658203124,158.93039965820313 19.529299658203115,153.37159965820314 C13.736699658203122,147.57929965820313 11.511499658203121,133.98519965820313 19.529299658203115,132.30769965820312 C34.89199965820313,129.09349965820314 41.76599965820313,118.9989996582031 45.42039965820311,106.41629965820313 C47.70509965820315,98.54959965820312 71.16439965820314,99.69279965820313 66.48439965820313,106.41629965820313 C41.03209965820312,142.98609965820313 46.59079965820314,148.54479965820312 83.16029965820314,123.09219965820313 C89.88409965820313,118.41249965820313 91.1468996582031,142.3365996582031 83.16029965820314,144.15619965820312 C69.28019965820312,147.3184996582031 58.934299658203145,154.20559965820314 57.26919965820315,170.04759965820313 C56.412899658203116,178.19409965820313 41.997599658203114,175.83989965820314 36.20499965820312,170.04759965820313 " fill="#00aeef" fill-opacity=".71" fill-rule="evenodd" id="svg_12"/>
</g>
<g filter="url(#blend_1)" id="svg_13">
<path d="M-3.41796862812771e-7,106.64079965820312 C-3.41796862812771e-7,98.77979965820313 -3.41796862812771e-7,90.91869965820312 -3.41796862812771e-7,83.05769965820312 C-3.41796862812771e-7,74.86579965820313 8.038799658203118,63.679999658203116 14.894699658203137,68.16329965820313 C28.030399658203123,76.75369965820312 40.02889965820313,74.47659965820313 51.51029965820311,68.16329965820313 C58.68849965820311,64.21639965820313 74.46839965820311,81.61289965820312 66.40469965820313,83.05769965820312 C22.548799658203137,90.91869965820312 22.548799658203137,98.77979965820313 66.40469965820313,106.64079965820312 C74.46839965820311,108.08619965820313 58.44449965820314,125.89629965820313 51.51029965820311,121.53549965820312 C39.459399658203125,113.95669965820312 27.27379965820313,111.51129965820313 14.894699658203137,121.53549965820312 C8.52889965820313,126.69029965820312 -3.41796862812771e-7,114.83289965820313 -3.41796862812771e-7,106.64079965820312 " fill="#709742" fill-opacity=".71" fill-rule="evenodd" id="svg_14"/>
</g>
<g filter="url(#blend_1)" id="svg_15">
<path d="M19.234499658203134,36.20469965820311 C24.792999658203115,30.64619965820313 30.35169965820313,25.087799658203124 35.91019965820311,19.529299658203115 C41.70279965820313,13.736399658203112 55.29659965820315,11.511199658203111 56.9740996582031,19.529299658203115 C60.188599658203145,34.89169965820312 70.28279965820315,41.76599965820313 82.86549965820313,45.42039965820314 C90.73219965820311,47.705099658203125 89.58899965820314,71.16439965820314 82.86549965820313,66.48439965820313 C46.29569965820315,41.03209965820312 40.73729965820311,46.59079965820314 66.18979965820313,83.15999965820312 C70.86959965820313,89.88379965820313 46.94519965820314,91.14689965820313 45.12589965820314,83.15999965820312 C41.96329965820311,69.28019965820312 35.07619965820314,58.934299658203116 19.234499658203134,57.26919965820312 C11.087999658203131,56.412899658203116 13.441899658203113,41.997599658203114 19.234499658203134,36.20469965820311 " fill="#ec008c" fill-opacity=".71" fill-rule="evenodd" id="svg_16"/>
</g>
<path d="M95.91789965820311,68.80109965820313 C109.92729965820314,68.80109965820313 121.28459965820315,80.15779965820313 121.28459965820315,94.16719965820313 C121.28459965820315,108.17689965820313 109.92729965820314,119.53359965820312 95.91789965820311,119.53359965820312 C81.90849965820314,119.53359965820312 70.55149965820311,108.17689965820313 70.55149965820311,94.16719965820313 C70.55149965820311,80.15779965820313 81.90849965820314,68.80109965820313 95.91789965820311,68.80109965820313 " fill="#f5821f" fill-rule="evenodd" id="svg_17"/>
</g>
</g>
</g></g></svg>