<svg height='300px' width='300px'  fill="#fff" xmlns="http://www.w3.org/2000/svg" xmlns:xlink="http://www.w3.org/1999/xlink" version="1.1" x="0px" y="0px" viewBox="0 0 512 512" enable-background="new 0 0 512 512" xml:space="preserve"><path d="M478.766,478.952H423.9c2.206-3.942,3.47-8.481,3.47-13.313V182.765c0-7.53-3.067-14.358-8.021-19.303  c-4.95-4.946-11.789-8.009-19.326-8.009h-4.512V75.801l23.899-27.198c0.14-0.159,0.267-0.324,0.39-0.491  c0.021-0.029,0.045-0.056,0.065-0.086c0.192-0.274,0.357-0.561,0.51-0.853c0.028-0.056,0.058-0.111,0.085-0.168  c0.151-0.314,0.277-0.637,0.379-0.965c0.005-0.016,0.014-0.03,0.02-0.045c0.016-0.052,0.022-0.104,0.037-0.156  c0.041-0.147,0.078-0.294,0.108-0.443c0.021-0.095,0.034-0.189,0.05-0.284c0.021-0.125,0.04-0.25,0.055-0.375  c0.013-0.116,0.021-0.231,0.025-0.347c0.007-0.105,0.014-0.21,0.015-0.316c0.002-0.128-0.001-0.255-0.008-0.382  c-0.004-0.097-0.009-0.193-0.018-0.29c-0.011-0.128-0.025-0.254-0.043-0.38c-0.014-0.1-0.029-0.199-0.047-0.298  c-0.021-0.117-0.046-0.232-0.073-0.348c-0.026-0.11-0.055-0.22-0.086-0.329c-0.028-0.1-0.06-0.198-0.092-0.296  c-0.041-0.122-0.085-0.242-0.133-0.362c-0.033-0.083-0.068-0.166-0.105-0.249c-0.056-0.126-0.115-0.25-0.179-0.374  c-0.039-0.076-0.081-0.151-0.123-0.226c-0.067-0.12-0.138-0.239-0.214-0.355c-0.053-0.079-0.104-0.155-0.158-0.232  c-0.073-0.104-0.147-0.207-0.229-0.307c-0.068-0.089-0.145-0.176-0.22-0.262c-0.071-0.081-0.143-0.163-0.218-0.241  c-0.096-0.1-0.196-0.195-0.298-0.29c-0.046-0.043-0.087-0.089-0.135-0.131c-0.021-0.019-0.044-0.033-0.064-0.051  c-0.112-0.096-0.229-0.186-0.347-0.274c-0.07-0.053-0.143-0.109-0.213-0.159c-0.105-0.074-0.219-0.142-0.327-0.209  c-0.093-0.058-0.187-0.116-0.278-0.168c-0.09-0.049-0.184-0.094-0.275-0.14c-0.119-0.061-0.241-0.121-0.365-0.174  c-0.075-0.032-0.153-0.06-0.231-0.09c-0.144-0.055-0.287-0.109-0.434-0.155c-0.024-0.007-0.048-0.018-0.072-0.025L357.34,19.624  c-3.7-1.11-7.604,0.989-8.716,4.692s0.989,7.605,4.692,8.717l48.384,14.52l-18.444,20.989c-0.021,0.024-0.039,0.051-0.061,0.076  c-0.09,0.105-0.175,0.215-0.259,0.326c-0.059,0.076-0.116,0.151-0.172,0.228c-0.072,0.106-0.142,0.217-0.21,0.328  c-0.053,0.087-0.107,0.173-0.156,0.261c-0.062,0.106-0.111,0.216-0.165,0.325c-0.049,0.096-0.099,0.191-0.142,0.29  c-0.047,0.107-0.086,0.218-0.127,0.328c-0.039,0.104-0.08,0.207-0.114,0.312c-0.033,0.107-0.063,0.218-0.092,0.328  c-0.028,0.111-0.062,0.222-0.086,0.334c-0.021,0.105-0.038,0.213-0.057,0.32c-0.021,0.121-0.041,0.242-0.058,0.364  c-0.011,0.101-0.017,0.204-0.021,0.306c-0.01,0.13-0.021,0.26-0.021,0.391c0,0.035-0.005,0.069-0.005,0.104v82.29h-4.492  c-0.475,0-0.944,0.012-1.415,0.036c-10.106,0.511-18.778,6.541-23.064,15.125c-1.829,3.662-2.864,7.785-2.864,12.147l-0.019,44.516  c0,0.134,0.012,0.266,0.02,0.398v201.717v36.248c0,4.83,1.263,9.369,3.468,13.313h-63.012c2.204-3.942,3.468-8.481,3.468-13.313  v-36.248V227.28v-44.515v-0.001c0-15.06-12.26-27.311-27.326-27.311h-4.511V39.271c0-3.866-3.135-7-7-7c-3.866,0-7,3.134-7,7  v116.182h-4.51c-7.539,0-14.375,3.063-19.327,8.009c-4.952,4.945-8.019,11.773-8.019,19.303v246.625v36.248  c0,4.83,1.264,9.369,3.47,13.313H158.87c2.206-3.942,3.47-8.481,3.47-13.313V227.676c0.007-0.132,0.02-0.263,0.02-0.396  c0-0.18-0.007-0.359-0.02-0.536v-43.979c0-14.592-11.517-26.547-25.949-27.276c-0.468-0.024-0.94-0.036-1.415-0.036h-4.492v-82.29  c0-0.035-0.005-0.069-0.005-0.104c-0.002-0.131-0.011-0.261-0.02-0.392c-0.007-0.103-0.013-0.205-0.024-0.306  c-0.014-0.123-0.035-0.244-0.056-0.366c-0.018-0.106-0.034-0.213-0.056-0.317c-0.024-0.114-0.057-0.226-0.087-0.339  c-0.029-0.108-0.056-0.217-0.09-0.323c-0.035-0.107-0.077-0.212-0.116-0.318c-0.041-0.107-0.079-0.216-0.125-0.321  c-0.043-0.101-0.095-0.199-0.144-0.298c-0.052-0.106-0.103-0.213-0.161-0.316c-0.051-0.092-0.108-0.18-0.164-0.27  c-0.066-0.107-0.132-0.215-0.204-0.318c-0.057-0.081-0.119-0.16-0.179-0.239c-0.081-0.106-0.162-0.212-0.249-0.313  c-0.022-0.026-0.041-0.054-0.063-0.08l-18.445-20.989l48.383-14.521c3.703-1.111,5.804-5.014,4.692-8.717  c-1.112-3.704-5.017-5.803-8.717-4.692L95.829,37.278c-0.025,0.007-0.048,0.018-0.072,0.026c-0.146,0.045-0.29,0.099-0.433,0.154  c-0.078,0.03-0.156,0.058-0.232,0.09c-0.124,0.053-0.245,0.113-0.366,0.173c-0.093,0.046-0.186,0.091-0.276,0.141  c-0.093,0.051-0.183,0.109-0.274,0.166c-0.113,0.069-0.226,0.138-0.333,0.213c-0.068,0.048-0.135,0.101-0.202,0.151  c-0.123,0.092-0.244,0.186-0.359,0.285c-0.019,0.017-0.04,0.03-0.059,0.047c-0.043,0.038-0.081,0.08-0.123,0.119  c-0.108,0.1-0.215,0.201-0.316,0.308c-0.07,0.073-0.136,0.149-0.203,0.225c-0.08,0.091-0.159,0.183-0.233,0.278  c-0.075,0.096-0.146,0.193-0.216,0.292c-0.058,0.082-0.115,0.164-0.169,0.248c-0.072,0.111-0.139,0.225-0.204,0.339  c-0.045,0.08-0.09,0.161-0.132,0.243c-0.061,0.117-0.117,0.236-0.17,0.356c-0.04,0.088-0.078,0.177-0.114,0.267  c-0.045,0.114-0.086,0.228-0.125,0.344c-0.035,0.104-0.068,0.208-0.098,0.313c-0.03,0.104-0.057,0.207-0.081,0.312  c-0.029,0.121-0.055,0.242-0.077,0.364c-0.017,0.093-0.031,0.187-0.044,0.28c-0.019,0.132-0.034,0.264-0.045,0.398  c-0.008,0.09-0.012,0.181-0.016,0.271c-0.006,0.133-0.009,0.266-0.007,0.4c0.001,0.099,0.006,0.198,0.012,0.297  c0.007,0.121,0.016,0.242,0.029,0.364c0.013,0.119,0.031,0.237,0.05,0.356c0.017,0.101,0.032,0.201,0.053,0.302  c0.03,0.143,0.066,0.284,0.104,0.425c0.016,0.056,0.025,0.112,0.042,0.168c0.005,0.017,0.014,0.032,0.019,0.049  c0.101,0.328,0.227,0.648,0.377,0.961c0.027,0.058,0.057,0.112,0.085,0.168c0.151,0.295,0.318,0.585,0.515,0.861  c0.018,0.024,0.037,0.046,0.055,0.07c0.124,0.17,0.253,0.337,0.395,0.499l23.901,27.198v79.651h-4.511  c-15.078,0-27.345,12.251-27.345,27.311v0.001v44.515V429.39v36.248c0,0.474,0.012,0.939,0.036,1.405  c0.219,4.306,1.442,8.349,3.432,11.906H33.231c-3.866,0-7,3.134-7,7s3.134,7,7,7h77.287c0.476,0.022,0.954,0.038,1.436,0.038h0.019  h23.002h0.02c0.482,0,0.961-0.016,1.437-0.038h105.383c0.476,0.022,0.955,0.038,1.437,0.038h23.021c0.479,0,0.959-0.016,1.436-0.038  h107.857c0.477,0.022,0.955,0.038,1.437,0.038h23.021c0.48,0,0.961-0.016,1.437-0.038h77.305c3.866,0,7-3.134,7-7  S482.632,478.952,478.766,478.952z M98.628,182.765c0-7.34,5.987-13.311,13.345-13.311h23.022c0.454,0,0.901,0.023,1.344,0.068  c6.721,0.683,11.982,6.361,11.982,13.245l0.016,37.513H98.628V182.765z M148.32,465.64c0,7.107-5.585,12.918-12.593,13.313h-24.505  c-7.008-0.396-12.594-6.204-12.594-13.313v-29.248h49.692V465.64z M148.34,422.393H98.628V234.28h49.712V422.393z M279.6,465.641  c0,7.107-5.578,12.918-12.574,13.313H242.5c-7.008-0.396-12.593-6.205-12.593-13.313v-29.248H279.6V465.641z M279.6,422.393h-49.69  V234.28h49.69V422.393z M279.6,220.28h-49.691l0.001-37.516c0-3.669,1.497-6.997,3.913-9.407c2.416-2.41,5.752-3.903,9.431-3.903  h23.021c7.349,0,13.326,5.971,13.326,13.311V220.28z M363.673,182.766h0.002c0-1.692,0.33-3.305,0.909-4.795  c1.779-4.572,6.006-7.933,11.073-8.449c0.441-0.044,0.892-0.068,1.346-0.068h23.021c5.059,0,9.47,2.822,11.73,6.971  c0.044,0.081,0.078,0.167,0.12,0.249c0.155,0.3,0.31,0.601,0.442,0.914c0.676,1.591,1.05,3.34,1.05,5.174l-0.019,37.519h-49.676  V182.766z M413.37,465.641c0,7.107-5.586,12.918-12.594,13.313h-24.524c-6.997-0.396-12.575-6.205-12.575-13.313v-29.248h49.693  V465.641z M413.37,422.393h-49.693V234.28h49.693V422.393z"></path></svg>