<svg height='300px' width='300px'  fill="#fff" xmlns="http://www.w3.org/2000/svg" data-name="Layer 1" viewBox="0 0 512 512" x="0px" y="0px"><title>hygiene</title><path d="M196.048,89.522a6,6,0,0,0,4.844,4.084L235.253,98.6l15.366,31.137a6,6,0,0,0,10.762,0L276.747,98.6l34.361-4.993a6,6,0,0,0,3.327-10.234L289.57,59.135l5.87-34.222a6,6,0,0,0-8.706-6.326L256,34.745,225.266,18.587a6,6,0,0,0-8.706,6.326l5.87,34.222L197.565,83.372A6,6,0,0,0,196.048,89.522Zm37.017-24a6,6,0,0,0,1.726-5.31l-4.349-25.349,22.766,11.968a6.005,6.005,0,0,0,5.584,0l22.766-11.968-4.349,25.349a6,6,0,0,0,1.726,5.31l18.418,17.953-25.453,3.7a6,6,0,0,0-4.518,3.282L256,113.523,244.618,90.459a6,6,0,0,0-4.518-3.282l-25.453-3.7Z"></path><path d="M53.21,144.405a6,6,0,0,0,4.844,4.084l34.361,4.992,15.366,31.138a6,6,0,0,0,10.762,0l15.366-31.138,34.362-4.992a6,6,0,0,0,3.326-10.234l-24.865-24.237L152.6,79.8A6,6,0,0,0,143.9,73.47L113.162,89.628,82.429,73.471A6,6,0,0,0,73.723,79.8l5.869,34.223L54.728,138.255A6,6,0,0,0,53.21,144.405Zm37.018-24a6,6,0,0,0,1.725-5.31L87.605,89.75l22.765,11.967a6,6,0,0,0,5.584,0L138.72,89.75,134.371,115.1a6,6,0,0,0,1.726,5.31l18.418,17.953-25.453,3.7a6,6,0,0,0-4.518,3.282l-11.382,23.064L101.78,145.342a6,6,0,0,0-4.518-3.282l-25.452-3.7Z"></path><path d="M338.886,144.405a6,6,0,0,0,4.843,4.084l34.362,4.992,15.366,31.138a6,6,0,0,0,10.762,0l15.366-31.138,34.361-4.992a6,6,0,0,0,3.326-10.234l-24.864-24.237L438.277,79.8a6,6,0,0,0-8.706-6.324L398.838,89.628,368.1,73.47A6,6,0,0,0,359.4,79.8l5.871,34.223L340.4,138.255A6,6,0,0,0,338.886,144.405Zm37.017-24a6,6,0,0,0,1.726-5.31L373.28,89.75l22.766,11.968a6,6,0,0,0,5.584,0L424.4,89.75,420.047,115.1a6,6,0,0,0,1.725,5.31l18.418,17.953-25.452,3.7a6,6,0,0,0-4.518,3.282l-11.382,23.064-11.382-23.064a6,6,0,0,0-4.518-3.282l-25.453-3.7Z"></path><path d="M108.143,234.369c-11.039,34.532.615,73.55,25.976,86.977,16.455,8.712,25.442,14.154,28.89,19.725,2.984,4.822,2.6,11.116,1.439,24.895-.192,2.281-.4,4.726-.6,7.357-1.438,18.8-3.627,82.727,28.543,115.966a17.09,17.09,0,0,0,29.07-14.838,268.6,268.6,0,0,1,.14-45.263c1.991-22.689,7.972-54.126,25.16-75.048a11.251,11.251,0,0,1,17.238.085c16.876,21.056,22.73,52.47,24.67,75.116a271.826,271.826,0,0,1,.1,45.112A16.707,16.707,0,0,0,305.44,494.1a17.265,17.265,0,0,0,5.631-.944,16.855,16.855,0,0,0,6.772-3.866c32.172-33.241,29.982-97.167,28.545-115.968-.2-2.618-.4-5.052-.6-7.324-1.158-13.785-1.544-20.082,1.44-24.9,3.444-5.563,12.431-11.017,28.891-19.753,13.479-7.154,23.286-21.692,27.616-40.936a95.414,95.414,0,0,0-4.035-54.766c-6.469-16.334-17.37-28.744-31.525-35.886-16.338-8.243-36.161-9.278-58.921-3.073-15.891,4.332-24.208,9.489-33.015,14.95a138.512,138.512,0,0,1-21.2,11.307c-.124.052-.246.106-.367.163-2-1.1-4.4-2.485-7.024-4-14.585-8.424-36.629-21.154-55.466-23.652C151.087,179.994,119.676,198.286,108.143,234.369Zm143.991-9.038c13.015,6.472,32.56,14.636,51.966,10.853a6,6,0,0,0-2.3-11.778c-9.386,1.834-20.017.34-32.868-4.7,5.338-2.736,9.661-5.416,13.634-7.88,8.393-5.2,15.64-9.7,29.847-13.571,36.448-9.931,64.2,1.656,76.133,31.8a83.122,83.122,0,0,1,3.485,47.713c-3.5,15.546-11.347,27.564-21.535,32.971-19.144,10.162-28.52,16.044-33.468,24.036-5.2,8.395-4.443,17.365-3.195,32.225.189,2.244.391,4.648.589,7.233,2.76,36.1-2.393,83.043-25.124,106.626a9.478,9.478,0,0,1-2.132.948,4.8,4.8,0,0,1-6.551-5.414c.031-.164.056-.329.073-.494.359-3.434,8.382-84.632-27.324-129.182a23.249,23.249,0,0,0-35.874-.2c-36.416,44.327-28.305,125.933-27.942,129.385.016.164.041.327.072.49a4.8,4.8,0,0,1-6.553,5.413,9.433,9.433,0,0,1-2.13-.947c-22.729-23.581-27.883-70.525-25.124-106.626.2-2.6.4-5.012.592-7.266,1.249-14.855,2-23.821-3.193-32.216-4.956-8.006-14.334-13.879-33.479-24.015-20.123-10.653-29.355-43.954-20.162-72.718,4.62-14.451,20.778-47.342,71.031-40.68,16.476,2.185,37.278,14.2,51.043,22.148C245.827,221.905,249.438,223.99,252.134,225.331Z"></path></svg>