<svg height='300px' width='300px'  fill="#fff" xmlns="http://www.w3.org/2000/svg" viewBox="0 0 64 64" x="0px" y="0px"><title>12 Dental Care</title><g data-name="12 Dental Care"><path d="M61,26a9.01,9.01,0,0,0-9-9c-.263,0-.527.014-.791.037C49.569,12.058,45.725,9,41,9a13.7,13.7,0,0,0-5.215,1.024l-3.713,1.844-3.884-1.857A13.687,13.687,0,0,0,23,9c-7.145,0-11,6.7-11,13a10.76,10.76,0,0,0,.632,4.146l5.35,14.47c.013.034.027.068.043.1A9.262,9.262,0,0,1,19,44.84v10C19,56.989,20.717,61,24,61c2.77,0,5-3.37,5-6.16v-12c0-1.746,1.455-4,3-4s3,2.254,3,4v12C35,57.63,37.23,61,40,61s5-3.37,5-6.16v-10a9.262,9.262,0,0,1,.975-4.123c.016-.033.03-.067.043-.1l2.358-6.377A8.991,8.991,0,0,0,51,34.932V37H50a1,1,0,0,0-1,1V49a3,3,0,0,0,6,0V38a1,1,0,0,0-1-1H53V34.941A9.01,9.01,0,0,0,61,26ZM53,49a1,1,0,0,1-2,0V39h2Zm6-23a7,7,0,1,1-14,0,6.913,6.913,0,0,1,3.953-6.277c.18-.088.352-.191.542-.264a6.993,6.993,0,0,1,1.189-.336A7.124,7.124,0,0,1,52,19,7.008,7.008,0,0,1,59,26ZM44.161,39.873A11.274,11.274,0,0,0,43,44.84v10C43,56.618,41.517,59,40,59s-3-2.382-3-4.16v-12c0-2.775-2.184-6-5-6s-5,3.225-5,6v12C27,56.618,25.517,59,24,59c-1.867,0-3-2.89-3-4.16v-10a11.274,11.274,0,0,0-1.161-4.967l-5.331-14.42A8.74,8.74,0,0,1,14,22c0-5.333,3.154-11,9-11a11.865,11.865,0,0,1,4.339.822l4.31,2.061h0l3.92,1.859a1,1,0,0,0,.858-1.806L34.37,12.96l2.277-1.131A11.857,11.857,0,0,1,41,11c4.4,0,7.065,3.166,8.232,6.433a9,9,0,0,0-2.611,15.785Z"></path><path d="M47,26a1,1,0,0,0,2,0,3,3,0,0,1,3-3,1,1,0,0,0,0-2A5.006,5.006,0,0,0,47,26Z"></path><path d="M3,6V24a8.57,8.57,0,0,0,2,5.374l0,3.4-1.6,3.25a2.018,2.018,0,0,0,.151,2.041l1.435,2.071A2.019,2.019,0,0,0,6.64,41H8a1,1,0,0,0,0-2l-1.375-.007L5.189,36.905l1.6-3.25A2.031,2.031,0,0,0,7,32.763V29.375A8.577,8.577,0,0,0,9,24V6C9,2.061,3,2.061,3,6ZM7,24a6.437,6.437,0,0,1-1,3.351A6.4,6.4,0,0,1,5,24V6A.917.917,0,0,1,6,5,.917.917,0,0,1,7,6Z"></path><path d="M23.553,13C19.035,13,16,17.653,16,22a1,1,0,0,0,2,0c0-3.381,2.231-7,5.553-7a1,1,0,0,0,0-2Z"></path></g></svg>