<svg height='300px' width='300px'  fill="#fff" xmlns="http://www.w3.org/2000/svg" xmlns:xlink="http://www.w3.org/1999/xlink" version="1.1" x="0px" y="0px" viewBox="0 0 70 70" style="enable-background:new 0 0 70 70;" xml:space="preserve"><path d="M15.5551758,52.6884766c0.3764648-0.1474609,0.6928711-0.2294922,1.0473633-0.2695312  c2.2270508-0.3017578,3.1381836,2.2832031,3.5043945,4.5029297c0.0292969,0.1767578,0.0546875,0.3535156,0.0800781,0.5283203  c0.1123047,0.7744141,0.2280273,1.5742188,0.659668,2.4980469c0.0932617,0.1640625,0.6025391,0.9882812,1.4770508,1.0546875  c0.2939453,0.0253906,0.8754883-0.03125,1.390625-0.6835938c0.1821289-0.2470703,4.4213867-6.1298828,0.8227539-13.5107422  c-0.121582-0.2490234-0.1381836-0.4892578-0.050293-0.7138672c1.2446289-3.1591797,0.671875-5.6416016,0.2197266-6.8398438  c-0.3071289-0.8115234-0.7734375-1.4931641-1.3862305-2.0244141c-2.8051758-2.4296875-6.4672852-0.5859375-7.9736328,0.6953125  c-2.9335938,2.25-5.8613281,1.7929688-6.0390625,1.7666016l-0.1259766-0.0146484  c-2.1914062-0.2568359-4.4389648,0.6142578-5.8676758,2.2626953c-1.1376953,1.3125-1.5639648,2.9257812-1.1689453,4.4257812  c0.6137695,2.3320312,2.4936523,4.125,3.5600586,4.9863281c0.184082,0.1484375,0.2895508,0.3535156,0.3139648,0.6083984  c0.7832031,8.2041016,7.3520508,11.0664062,7.6772461,11.2021484c0.2192383,0.0800781,0.4331055,0.1201172,0.6401367,0.1201172  c0.1425781,0,0.2822266-0.0195312,0.4174805-0.0576172c0.84375-0.2382812,1.1889648-1.1259766,1.1508789-1.9755859  c-0.1108398-0.9335938-0.4331055-1.6767578-0.7446289-2.3955078c-0.0703125-0.1621094-0.1411133-0.3251953-0.2099609-0.4921875  c-0.7910156-1.9140625-1.0004883-3.5859375-0.574707-4.5859375C14.5898438,53.2724609,14.9760742,52.9160156,15.5551758,52.6884766z   M13.1010742,59.1240234c0.0727539,0.1777344,0.1489258,0.3525391,0.2241211,0.5263672  c0.2094727,0.4833984,0.3974609,0.9160156,0.5073242,1.3427734c-1.4873047-0.8525391-5.2822266-3.5615234-5.8222656-9.2226562  c-0.0756836-0.7880859-0.4482422-1.4902344-1.0488281-1.9746094c-0.8754883-0.7070312-2.4135742-2.1591797-2.8823242-3.9394531  C3.7719727,44.6914062,4.4150391,43.7236328,4.8251953,43.25c0.8764648-1.0107422,2.2514648-1.6152344,3.6123047-1.6152344  c0.171875,0,0.34375,0.0097656,0.5136719,0.0292969l0.0683594,0.0058594  c0.1567383,0.0273438,3.8867188,0.6474609,7.581543-2.1865234c0.1298828-0.1103516,3.2026367-2.6533203,5.4091797-0.7412109  c0.359375,0.3115234,0.637207,0.7216797,0.8251953,1.2197266c0.3505859,0.9287109,0.7890625,2.8652344-0.2089844,5.4003906  c-0.2939453,0.7451172-0.2539062,1.5703125,0.112793,2.3232422c2.5170898,5.1621094,0.5571289,9.4492188-0.2880859,10.9042969  c-0.1425781-0.4462891-0.2099609-0.9101562-0.284668-1.4257812c-0.0273438-0.1884766-0.0546875-0.3779297-0.0859375-0.5683594  c-0.7104492-4.3056641-2.7998047-6.5400391-5.7207031-6.1621094c-0.5078125,0.0566406-0.9956055,0.1816406-1.5356445,0.3935547  c-1.0893555,0.4277344-1.859375,1.15625-2.2890625,2.1660156C11.7099609,54.9316406,12.3876953,57.3984375,13.1010742,59.1240234z"></path><path d="M42.4345703,10.5917969H42.434082C42.2421875,9.7441406,41.875,9.0058594,41.3417969,8.3955078  c-2.4433594-2.7949219-6.3261719-1.4755859-7.9936523-0.4130859c-3.2167969,1.8203125-6.0532227,0.9667969-6.2036133,0.9208984  l-0.144043-0.0390625c-2.1352539-0.5527344-4.4814453-0.0058594-6.1245117,1.4296875  c-1.3081055,1.1435547-1.953125,2.6816406-1.7695312,4.2216797c0.2861328,2.3955078,1.8999023,4.4316406,2.8364258,5.4316406  c0.1621094,0.1728516,0.2382812,0.3896484,0.2270508,0.6455078C21.8115234,28.8261719,27.9213867,32.5693359,28.2260742,32.75  c0.277832,0.1474609,0.5566406,0.2216797,0.831543,0.2216797c0.0693359,0,0.1386719-0.0048828,0.2075195-0.0146484  c0.8676758-0.1210938,1.3320312-0.9521484,1.4121094-1.7978516c0.0195312-0.9404297-0.1972656-1.7216797-0.4072266-2.4765625  c-0.046875-0.1699219-0.0942383-0.3408203-0.1391602-0.5146484c-0.5185547-2.0058594-0.4951172-3.6904297,0.0649414-4.6220703  c0.2817383-0.4697266,0.7133789-0.7685547,1.3193359-0.9130859c0.3935547-0.0947266,0.7207031-0.1298828,1.0732422-0.1230469  c2.3730469,0.0146484,2.8037109,3.1035156,2.8491211,4.9433594c0.0043945,0.1806641,0.0053711,0.3583984,0.0058594,0.5361328  c0.0043945,0.78125,0.0087891,1.5898438,0.3085938,2.5634766c0.0693359,0.1757812,0.4594727,1.0615234,1.315918,1.2490234  c0.2944336,0.0634766,0.8720703,0.0888672,1.472168-0.4853516c0.2143555-0.21875,5.2265625-5.4589844,2.6826172-13.2666016  c-0.0859375-0.2636719-0.0698242-0.5029297,0.0488281-0.7138672C42.9414062,14.3789062,42.7167969,11.8408203,42.4345703,10.5917969  z M39.3212891,18.6699219c1.7788086,5.4599609-0.7543945,9.4345703-1.7924805,10.7587891  c-0.0800781-0.4609375-0.0825195-0.9296875-0.0854492-1.4501953c-0.0009766-0.1904297-0.0019531-0.3818359-0.0068359-0.5742188  c-0.1074219-4.3632812-1.8701172-6.8759766-4.8129883-6.8945312c-0.5102539-0.0107422-1.0117188,0.0410156-1.5756836,0.1777344  c-1.1381836,0.2734375-2.0014648,0.8886719-2.5664062,1.828125c-1.0854492,1.8056641-0.7548828,4.3427734-0.2875977,6.1513672  c0.0478516,0.1855469,0.0986328,0.3681641,0.1494141,0.5507812c0.1416016,0.5107422,0.269043,0.9677734,0.3183594,1.4033203  c-1.3540039-1.0498047-4.7407227-4.2578125-4.4936523-9.9404297c0.034668-0.7910156-0.2368164-1.5371094-0.7651367-2.1005859  c-0.769043-0.8212891-2.0922852-2.4716797-2.3100586-4.3007812c-0.1430664-1.1962891,0.6274414-2.0664062,1.0991211-2.4794922  c0.8461914-0.7392578,2.0014648-1.1455078,3.1474609-1.1455078c0.390625,0,0.7807617,0.0478516,1.1567383,0.1455078  l0.0683594,0.0166016c0.1518555,0.0488281,3.7602539,1.1767578,7.8105469-1.1181641  c0.1435547-0.0908203,3.5380859-2.1884766,5.4609375,0.0136719c0.3120117,0.3564453,0.5297852,0.8017578,0.6479492,1.3212891  c0.21875,0.96875,0.3857422,2.9472656-0.9536133,5.3193359C39.1357422,17.0517578,39.0615234,17.875,39.3212891,18.6699219z"></path><path d="M60.8676758,38.5585938c-4.1645508-0.2763672-6.3085938-2.8447266-6.4331055-2.9951172l-0.0952148-0.1064453  c-1.6240234-1.7939453-4.1074219-2.7109375-6.4775391-2.3808594c-1.8803711,0.2578125-3.3916016,1.2734375-4.1464844,2.7861328  c-1.1850586,2.375-0.9296875,5.2314453-0.671875,6.7236328c0.050293,0.2910156-0.0180664,0.5683594-0.2041016,0.8261719  c-5.3344727,7.3925781-1.9633789,14.5595703-1.7939453,14.90625c0.199707,0.3632812,0.4648438,0.6259766,0.7890625,0.7802734  c0.8833008,0.4189453,1.7504883-0.1210938,2.2724609-0.7714844c0.5839844-0.8496094,0.8574219-1.7021484,1.1220703-2.5253906  c0.0600586-0.1884766,0.1206055-0.3769531,0.1860352-0.5673828c0.7539062-2.2128906,1.828125-3.7910156,2.9477539-4.3300781  c0.578125-0.2773438,1.1923828-0.2949219,1.8769531-0.046875c0.4331055,0.1552734,0.7666016,0.3232422,1.0996094,0.5546875  c2.2802734,1.5195312,0.765625,4.7265625-0.340332,6.5029297c-0.1064453,0.1708984-0.215332,0.3378906-0.3232422,0.5048828  c-0.4702148,0.7236328-0.9560547,1.4716797-1.2661133,2.5371094c-0.0410156,0.1962891-0.2114258,1.2089844,0.4316406,1.8662109  c0.1801758,0.1845703,0.5449219,0.4560547,1.1474609,0.4560547c0.1269531,0,0.2646484-0.0117188,0.4130859-0.0390625  c0.331543-0.0722656,8.1416016-1.8701172,10.5332031-10.6308594c0.0620117-0.2275391,0.2060547-0.5341797,0.5405273-0.7060547  c3.3320312-1.7148438,4.6606445-4.1865234,5.15625-5.5068359c0.0004883,0,0.0004883,0,0.0004883-0.0009766  c0.3330078-0.8876953,0.440918-1.7822266,0.3203125-2.6582031C67.3994141,39.7167969,63.0429688,38.5908203,60.8676758,38.5585938z   M65.7597656,45.6933594c-0.3945312,1.0507812-1.4643555,3.0234375-4.1992188,4.4306641  c-0.765625,0.3945312-1.3178711,1.0898438-1.5551758,1.9589844c-1.7749023,6.5039062-6.9663086,8.5800781-8.5620117,9.0732422  c0.2158203-0.5791016,0.5410156-1.0800781,0.9091797-1.6464844c0.1152344-0.1777344,0.2314453-0.3554688,0.3447266-0.5380859  c2.5327148-4.0693359,2.4418945-7.4306641-0.2314453-9.2119141c-0.4589844-0.3203125-0.9511719-0.5693359-1.5483398-0.7841797  c-0.5454102-0.1972656-1.0810547-0.2949219-1.6040039-0.2949219c-0.6254883,0-1.2333984,0.140625-1.8178711,0.421875  c-2.0805664,1-3.3095703,3.5361328-3.9736328,5.4853516c-0.0688477,0.2021484-0.1333008,0.4023438-0.1972656,0.6025391  c-0.2133789,0.6650391-0.4008789,1.2490234-0.6958008,1.7480469c-0.5986328-1.5800781-2.1181641-6.8808594,1.8320312-12.3554688  c0.4985352-0.6904297,0.6948242-1.5205078,0.5532227-2.3378906c-0.2158203-1.25-0.4394531-3.625,0.4912109-5.4902344  c0.6230469-1.2480469,1.9140625-1.5996094,2.628418-1.6972656c1.7275391-0.2421875,3.5361328,0.4296875,4.7167969,1.734375  l0.0615234,0.0673828c0.1098633,0.1367188,2.7485352,3.3583984,7.8740234,3.6972656  c0.046875,0.0009766,4.7250977,0.1103516,5.1850586,3.4541016C66.0458984,44.5527344,65.9746094,45.1191406,65.7597656,45.6933594z"></path></svg>